<svg xmlns="http://www.w3.org/2000/svg" xmlns:xlink="http://www.w3.org/1999/xlink" width="60" zoomAndPan="magnify" viewBox="0 0 45 44.999999" height="60" preserveAspectRatio="xMidYMid meet" version="1.0"><defs><clipPath id="f3bb53a959"><path d="M 12 9.367188 L 34 9.367188 L 34 31 L 12 31 Z M 12 9.367188 " clip-rule="nonzero"/></clipPath><clipPath id="c18b056819"><path d="M 10.351562 25 L 34 25 L 34 35.617188 L 10.351562 35.617188 Z M 10.351562 25 " clip-rule="nonzero"/></clipPath><clipPath id="90d91482b1"><path d="M 25 9.367188 L 30 9.367188 L 30 14 L 25 14 Z M 25 9.367188 " clip-rule="nonzero"/></clipPath><clipPath id="6b621bc945"><path d="M 10.359375 24.941406 L 33.753906 24.941406 L 33.753906 35.617188 L 10.359375 35.617188 Z M 10.359375 24.941406 " clip-rule="nonzero"/></clipPath><clipPath id="4f2a20f466"><path d="M 10.351562 21 L 34 21 L 34 33 L 10.351562 33 Z M 10.351562 21 " clip-rule="nonzero"/></clipPath><clipPath id="3e34f1923d"><path d="M 10.351562 21 L 34.351562 21 L 34.351562 33 L 10.351562 33 Z M 10.351562 21 " clip-rule="nonzero"/></clipPath><clipPath id="2790079ca9"><path d="M 11 18 L 34.351562 18 L 34.351562 30 L 11 30 Z M 11 18 " clip-rule="nonzero"/></clipPath><clipPath id="fa421248d0"><path d="M 10.960938 18.527344 L 34.347656 18.527344 L 34.347656 29.371094 L 10.960938 29.371094 Z M 10.960938 18.527344 " clip-rule="nonzero"/></clipPath></defs><path fill="#ffde59" d="M 8.273438 8.074219 C 7.953125 8.351562 7.640625 8.636719 7.34375 8.929688 C 4.03125 12.195312 2.359375 16.457031 2.324219 20.855469 C 2.289062 25.25 3.890625 29.773438 7.125 33.566406 C 7.460938 33.960938 7.820312 34.351562 8.191406 34.730469 C 12.113281 38.707031 17.261719 40.945312 22.410156 41.347656 C 27.570312 41.753906 32.734375 40.316406 36.683594 36.949219 C 37.007812 36.671875 37.316406 36.386719 37.617188 36.09375 C 40.925781 32.828125 42.601562 28.566406 42.632812 24.164062 C 42.667969 19.773438 41.070312 15.25 37.832031 11.460938 C 37.496094 11.0625 37.136719 10.671875 36.765625 10.292969 C 32.84375 6.316406 27.695312 4.078125 22.546875 3.675781 C 17.386719 3.269531 12.226562 4.707031 8.273438 8.074219 Z M 7.742188 9.335938 C 8.03125 9.054688 8.332031 8.777344 8.644531 8.511719 C 12.476562 5.242188 17.488281 3.851562 22.5 4.246094 C 27.519531 4.640625 32.535156 6.820312 36.359375 10.695312 C 36.722656 11.066406 37.070312 11.445312 37.398438 11.832031 C 40.542969 15.515625 42.097656 19.90625 42.0625 24.160156 C 42.03125 28.414062 40.414062 32.53125 37.214844 35.683594 C 36.925781 35.96875 36.625 36.246094 36.3125 36.511719 C 32.484375 39.78125 27.46875 41.171875 22.457031 40.777344 C 17.4375 40.386719 12.421875 38.203125 8.601562 34.328125 C 8.238281 33.957031 7.886719 33.578125 7.558594 33.191406 C 4.414062 29.507812 2.859375 25.117188 2.894531 20.863281 C 2.929688 16.613281 4.546875 12.492188 7.742188 9.335938 " fill-opacity="1" fill-rule="nonzero"/><path fill="#004aad" d="M 16.328125 4.992188 C 6.652344 8.390625 1.5625 18.988281 4.960938 28.664062 C 8.359375 38.339844 18.957031 43.429688 28.632812 40.03125 C 38.308594 36.632812 43.398438 26.035156 40 16.359375 C 36.601562 6.683594 26 1.59375 16.328125 4.992188 " fill-opacity="1" fill-rule="evenodd"/><path fill="#004aad" d="M 15.3125 41.199219 C 11.355469 40.28125 9.410156 38.792969 6.429688 34.894531 C 3.445312 30.996094 2.875 36.785156 7.691406 39.304688 C 12.507812 41.828125 19.269531 42.117188 15.3125 41.199219 " fill-opacity="1" fill-rule="evenodd"/><path fill="#004aad" d="M 28.695312 3.390625 C 32.652344 4.308594 34.597656 5.796875 37.578125 9.695312 C 40.5625 13.59375 41.132812 7.808594 36.316406 5.285156 C 31.5 2.761719 24.738281 2.472656 28.695312 3.390625 " fill-opacity="1" fill-rule="evenodd"/><g clip-path="url(#f3bb53a959)"><path fill="#054b85" d="M 33.238281 19.6875 C 33.238281 25.390625 28.671875 30.011719 23.035156 30.011719 C 17.402344 30.011719 12.832031 25.390625 12.832031 19.6875 C 12.832031 13.988281 17.402344 9.367188 23.035156 9.367188 C 28.671875 9.367188 33.238281 13.988281 33.238281 19.6875 " fill-opacity="1" fill-rule="nonzero"/></g><g clip-path="url(#c18b056819)"><path fill="#ffffff" d="M 31.796875 25.804688 L 19.527344 25.148438 C 19.046875 25.125 18.582031 25.277344 18.234375 25.578125 L 11.0625 31.828125 C 10.707031 32.132812 10.507812 32.566406 10.507812 33.027344 C 10.503906 33.964844 11.300781 34.761719 12.296875 34.8125 L 24.566406 35.46875 C 25.046875 35.492188 25.511719 35.339844 25.855469 35.039062 L 33.03125 28.789062 C 33.386719 28.484375 33.585938 28.050781 33.585938 27.589844 C 33.589844 26.65625 32.792969 25.855469 31.796875 25.804688 " fill-opacity="1" fill-rule="nonzero"/></g><g clip-path="url(#90d91482b1)"><path fill="#42daf9" d="M 27.765625 9.652344 L 27.828125 9.410156 L 27.894531 9.652344 C 28.117188 10.492188 28.765625 11.148438 29.597656 11.375 L 29.839844 11.441406 L 29.597656 11.507812 C 28.765625 11.734375 28.117188 12.386719 27.894531 13.226562 L 27.828125 13.472656 L 27.765625 13.226562 C 27.542969 12.386719 26.890625 11.734375 26.0625 11.507812 L 25.820312 11.441406 L 26.0625 11.375 C 26.890625 11.148438 27.542969 10.492188 27.765625 9.652344 " fill-opacity="1" fill-rule="nonzero"/></g><g clip-path="url(#6b621bc945)"><path fill="#054b85" d="M 19.421875 25.296875 C 19.011719 25.296875 18.628906 25.4375 18.332031 25.691406 L 11.15625 31.941406 C 10.839844 32.214844 10.65625 32.613281 10.65625 33.027344 C 10.652344 33.878906 11.390625 34.613281 12.304688 34.664062 L 24.574219 35.316406 C 25.019531 35.339844 25.441406 35.203125 25.761719 34.925781 L 32.9375 28.675781 C 33.253906 28.402344 33.4375 28.003906 33.4375 27.589844 C 33.441406 26.738281 32.703125 26.003906 31.789062 25.953125 L 19.519531 25.300781 C 19.484375 25.296875 19.453125 25.296875 19.421875 25.296875 Z M 24.671875 35.621094 C 24.636719 35.621094 24.597656 35.621094 24.558594 35.617188 L 12.289062 34.960938 C 11.21875 34.90625 10.355469 34.035156 10.359375 33.023438 C 10.363281 32.523438 10.582031 32.046875 10.964844 31.714844 L 18.140625 25.464844 C 18.515625 25.136719 19.011719 24.972656 19.535156 25 L 31.804688 25.65625 C 32.871094 25.710938 33.738281 26.582031 33.734375 27.59375 C 33.730469 28.09375 33.511719 28.570312 33.128906 28.902344 L 25.953125 35.152344 C 25.605469 35.457031 25.152344 35.621094 24.671875 35.621094 " fill-opacity="1" fill-rule="nonzero"/></g><g clip-path="url(#4f2a20f466)"><path fill="#42daf9" d="M 32.160156 22.421875 L 19.890625 21.765625 C 19.410156 21.742188 18.945312 21.894531 18.601562 22.195312 L 11.425781 28.445312 C 11.074219 28.75 10.875 29.183594 10.871094 29.644531 C 10.867188 30.582031 11.667969 31.378906 12.664062 31.429688 L 24.933594 32.085938 C 25.414062 32.109375 25.878906 31.957031 26.222656 31.65625 L 33.398438 25.40625 C 33.75 25.101562 33.949219 24.667969 33.953125 24.207031 C 33.957031 23.273438 33.15625 22.472656 32.160156 22.421875 " fill-opacity="1" fill-rule="nonzero"/></g><path fill="#2ab4ea" d="M 19.890625 21.765625 C 19.410156 21.742188 18.945312 21.894531 18.601562 22.195312 L 11.652344 28.246094 C 11.910156 28.890625 12.558594 29.367188 13.320312 29.40625 L 25.589844 30.0625 C 26.070312 30.085938 26.535156 29.933594 26.878906 29.632812 L 33.828125 23.582031 C 33.570312 22.9375 32.921875 22.460938 32.160156 22.421875 L 19.890625 21.765625 " fill-opacity="1" fill-rule="nonzero"/><g clip-path="url(#3e34f1923d)"><path fill="#054b85" d="M 19.785156 21.914062 C 19.375 21.914062 18.992188 22.054688 18.699219 22.308594 L 11.523438 28.558594 C 11.207031 28.832031 11.023438 29.230469 11.019531 29.644531 C 11.015625 30.496094 11.757812 31.230469 12.671875 31.28125 L 24.941406 31.933594 C 25.386719 31.957031 25.808594 31.820312 26.125 31.542969 L 33.300781 25.292969 C 33.617188 25.019531 33.800781 24.621094 33.804688 24.207031 C 33.808594 23.355469 33.066406 22.621094 32.152344 22.570312 L 19.882812 21.917969 C 19.851562 21.914062 19.816406 21.914062 19.785156 21.914062 Z M 25.039062 32.238281 C 25 32.238281 24.964844 32.234375 24.925781 32.234375 L 12.65625 31.578125 C 11.585938 31.523438 10.71875 30.652344 10.726562 29.640625 C 10.726562 29.140625 10.945312 28.664062 11.328125 28.332031 L 18.503906 22.082031 C 18.882812 21.753906 19.378906 21.589844 19.898438 21.617188 L 32.167969 22.273438 C 33.238281 22.328125 34.105469 23.199219 34.097656 24.210938 C 34.097656 24.710938 33.875 25.1875 33.496094 25.519531 L 26.320312 31.769531 C 25.96875 32.074219 25.519531 32.238281 25.039062 32.238281 " fill-opacity="1" fill-rule="nonzero"/></g><g clip-path="url(#2790079ca9)"><path fill="#ffffff" d="M 32.40625 19.472656 L 20.136719 18.816406 C 19.65625 18.792969 19.191406 18.945312 18.847656 19.246094 L 11.671875 25.496094 C 11.320312 25.800781 11.121094 26.234375 11.117188 26.695312 C 11.113281 27.628906 11.914062 28.429688 12.910156 28.480469 L 25.179688 29.136719 C 25.660156 29.160156 26.125 29.007812 26.46875 28.707031 L 33.644531 22.457031 C 33.996094 22.152344 34.195312 21.71875 34.199219 21.257812 C 34.203125 20.324219 33.402344 19.523438 32.40625 19.472656 " fill-opacity="1" fill-rule="nonzero"/></g><g clip-path="url(#fa421248d0)"><path fill="#054b85" d="M 20.03125 18.964844 C 19.625 18.964844 19.242188 19.101562 18.945312 19.359375 L 11.769531 25.609375 C 11.453125 25.882812 11.269531 26.28125 11.265625 26.695312 C 11.261719 27.546875 12.003906 28.28125 12.917969 28.332031 L 25.1875 28.984375 C 25.632812 29.007812 26.054688 28.871094 26.375 28.59375 L 33.546875 22.34375 C 33.867188 22.070312 34.046875 21.671875 34.050781 21.257812 C 34.054688 20.40625 33.3125 19.671875 32.398438 19.621094 L 20.128906 18.96875 C 20.097656 18.964844 20.066406 18.964844 20.03125 18.964844 Z M 25.285156 29.289062 C 25.246094 29.289062 25.210938 29.285156 25.171875 29.285156 L 12.902344 28.628906 C 11.832031 28.574219 10.964844 27.703125 10.972656 26.691406 C 10.972656 26.191406 11.195312 25.714844 11.574219 25.382812 L 18.75 19.132812 C 19.128906 18.804688 19.625 18.640625 20.144531 18.667969 L 32.414062 19.324219 C 33.484375 19.378906 34.351562 20.25 34.347656 21.261719 C 34.34375 21.761719 34.125 22.238281 33.742188 22.570312 L 26.566406 28.820312 C 26.214844 29.125 25.765625 29.289062 25.285156 29.289062 " fill-opacity="1" fill-rule="nonzero"/></g><path fill="#054b85" d="M 24.453125 27.9375 C 24.625 27.945312 24.785156 27.882812 24.910156 27.765625 C 25.039062 27.640625 25.109375 27.464844 25.109375 27.277344 C 25.113281 26.894531 24.816406 26.566406 24.445312 26.550781 L 13.242188 26.058594 C 13.070312 26.054688 12.910156 26.113281 12.785156 26.234375 C 12.65625 26.359375 12.585938 26.53125 12.582031 26.71875 C 12.582031 27.105469 12.878906 27.429688 13.246094 27.445312 Z M 24.480469 28.238281 C 24.464844 28.238281 24.453125 28.238281 24.4375 28.234375 L 13.234375 27.746094 C 12.710938 27.722656 12.285156 27.261719 12.289062 26.71875 C 12.289062 26.445312 12.394531 26.199219 12.582031 26.015625 C 12.761719 25.839844 13.003906 25.75 13.253906 25.761719 L 24.460938 26.25 C 24.984375 26.273438 25.410156 26.734375 25.40625 27.277344 C 25.40625 27.550781 25.300781 27.796875 25.113281 27.980469 C 24.941406 28.144531 24.71875 28.238281 24.480469 28.238281 " fill-opacity="1" fill-rule="nonzero"/><path fill="#ffffff" d="M 24.835938 14.832031 C 24.835938 14.832031 26.988281 15.136719 27.585938 16.148438 C 28.1875 17.160156 27.9375 21.410156 27.785156 21.914062 C 27.636719 22.421875 25.886719 23.179688 25.886719 23.179688 L 25.9375 21.765625 C 25.9375 21.765625 26.488281 21.664062 26.9375 21.207031 C 27.1875 20.953125 27.136719 17.816406 26.886719 17.058594 C 26.636719 16.296875 25.6875 16.296875 25.6875 16.296875 L 24.835938 14.832031 " fill-opacity="1" fill-rule="nonzero"/><path fill="#054b85" d="M 26.082031 21.882812 L 26.042969 22.945312 C 26.722656 22.632812 27.5625 22.144531 27.644531 21.871094 C 27.792969 21.371094 28.027344 17.179688 27.460938 16.222656 C 27.035156 15.507812 25.730469 15.160156 25.125 15.035156 L 25.773438 16.152344 C 26.035156 16.171875 26.792969 16.292969 27.027344 17.011719 C 27.257812 17.710938 27.378906 20.972656 27.042969 21.3125 C 26.6875 21.671875 26.277344 21.824219 26.082031 21.882812 Z M 25.886719 23.332031 C 25.855469 23.332031 25.828125 23.320312 25.804688 23.304688 C 25.761719 23.277344 25.738281 23.226562 25.738281 23.175781 L 25.789062 21.757812 C 25.792969 21.6875 25.839844 21.628906 25.910156 21.617188 C 25.914062 21.617188 26.417969 21.515625 26.828125 21.105469 C 27.015625 20.816406 27 17.875 26.746094 17.105469 C 26.660156 16.839844 26.457031 16.648438 26.152344 16.539062 C 25.910156 16.449219 25.6875 16.449219 25.6875 16.449219 C 25.632812 16.449219 25.585938 16.421875 25.558594 16.375 L 24.707031 14.90625 C 24.679688 14.859375 24.683594 14.796875 24.714844 14.746094 C 24.746094 14.699219 24.800781 14.675781 24.855469 14.683594 C 24.949219 14.695312 27.085938 15.007812 27.714844 16.070312 C 28.359375 17.15625 28.074219 21.460938 27.929688 21.957031 C 27.765625 22.503906 26.246094 23.1875 25.945312 23.316406 C 25.925781 23.328125 25.90625 23.332031 25.886719 23.332031 " fill-opacity="1" fill-rule="nonzero"/><path fill="#ffffff" d="M 21.539062 10.996094 C 21.539062 10.996094 23.984375 11.898438 25.335938 14.324219 C 26.6875 16.753906 26.6875 19.183594 26.6875 20.246094 C 26.6875 21.308594 26.535156 23.433594 26.535156 23.433594 L 25.113281 24.65625 L 20.984375 22.21875 L 21.539062 10.996094 " fill-opacity="1" fill-rule="nonzero"/><path fill="#054b85" d="M 21.136719 22.136719 L 25.09375 24.472656 L 26.394531 23.359375 C 26.417969 23 26.539062 21.1875 26.539062 20.246094 C 26.539062 19.210938 26.539062 16.792969 25.207031 14.398438 C 24.117188 12.433594 22.265625 11.480469 21.675781 11.214844 Z M 25.113281 24.804688 C 25.085938 24.804688 25.058594 24.800781 25.035156 24.785156 L 20.910156 22.347656 C 20.863281 22.320312 20.835938 22.269531 20.835938 22.210938 L 21.390625 10.988281 C 21.390625 10.941406 21.417969 10.898438 21.457031 10.871094 C 21.496094 10.84375 21.542969 10.839844 21.589844 10.855469 C 21.691406 10.890625 24.105469 11.804688 25.464844 14.25 C 26.835938 16.714844 26.835938 19.1875 26.835938 20.246094 C 26.835938 21.300781 26.6875 23.421875 26.683594 23.445312 C 26.679688 23.484375 26.664062 23.523438 26.632812 23.546875 L 25.207031 24.769531 C 25.179688 24.792969 25.144531 24.804688 25.113281 24.804688 " fill-opacity="1" fill-rule="nonzero"/><path fill="#42daf9" d="M 25.113281 24.65625 L 18.058594 23.746094 L 18.210938 17.371094 C 18.210938 15.546875 19.34375 12.511719 21.5 10.984375 L 21.511719 10.976562 L 21.539062 10.996094 C 23.769531 12.511719 24.8125 15.546875 25.113281 17.777344 L 25.113281 24.65625 " fill-opacity="1" fill-rule="nonzero"/><path fill="#2ab4ea" d="M 23.335938 14.273438 C 23.785156 16.296875 23.535156 23.078125 23.535156 23.078125 L 18.085938 23.078125 L 18.074219 23.136719 L 18.058594 23.746094 L 25.113281 24.65625 L 25.113281 17.777344 C 24.8125 15.546875 23.769531 12.511719 21.539062 10.996094 C 21.539062 10.996094 22.886719 12.25 23.335938 14.273438 " fill-opacity="1" fill-rule="nonzero"/><path fill="#054b85" d="M 18.210938 23.613281 L 24.964844 24.484375 L 24.964844 17.789062 C 24.386719 13.527344 22.246094 11.675781 21.511719 11.160156 C 19.5625 12.59375 18.355469 15.480469 18.355469 17.371094 Z M 25.113281 24.804688 C 25.105469 24.804688 25.097656 24.804688 25.09375 24.804688 L 18.039062 23.894531 C 17.964844 23.882812 17.910156 23.820312 17.910156 23.742188 L 18.0625 17.367188 C 18.0625 15.652344 19.101562 12.5 21.417969 10.859375 L 21.425781 10.855469 C 21.476562 10.820312 21.542969 10.820312 21.59375 10.851562 L 21.621094 10.871094 C 22.660156 11.578125 23.523438 12.648438 24.183594 14.054688 C 24.703125 15.164062 25.085938 16.476562 25.257812 17.757812 C 25.257812 17.765625 25.257812 17.769531 25.257812 17.777344 L 25.257812 24.65625 C 25.257812 24.699219 25.242188 24.742188 25.210938 24.769531 C 25.183594 24.792969 25.148438 24.804688 25.113281 24.804688 " fill-opacity="1" fill-rule="nonzero"/><path fill="#054b85" d="M 25.585938 24.394531 C 25.503906 24.394531 25.4375 24.324219 25.4375 24.242188 L 25.488281 17.921875 C 25.484375 17.863281 25.4375 17.019531 25.09375 15.78125 C 24.460938 13.515625 23.140625 12.0625 23.128906 12.046875 C 23.070312 11.988281 23.074219 11.894531 23.136719 11.835938 C 23.195312 11.78125 23.289062 11.785156 23.34375 11.84375 C 23.398438 11.90625 24.726562 13.367188 25.378906 15.703125 C 25.746094 17.015625 25.78125 17.875 25.785156 17.914062 C 25.785156 17.914062 25.785156 17.917969 25.785156 17.917969 L 25.734375 24.246094 C 25.734375 24.328125 25.667969 24.394531 25.585938 24.394531 " fill-opacity="1" fill-rule="nonzero"/><path fill="#42daf9" d="M 30.636719 21.089844 L 30.757812 20.960938 L 30.71875 21.132812 C 30.582031 21.730469 30.773438 22.359375 31.21875 22.777344 L 31.347656 22.898438 L 31.175781 22.859375 C 30.582031 22.722656 29.964844 22.917969 29.550781 23.367188 L 29.429688 23.496094 L 29.46875 23.320312 C 29.601562 22.722656 29.414062 22.097656 28.96875 21.675781 L 28.839844 21.554688 L 29.011719 21.59375 C 29.605469 21.730469 30.222656 21.539062 30.636719 21.089844 " fill-opacity="1" fill-rule="nonzero"/><path fill="#42daf9" d="M 14.929688 16.308594 L 14.976562 16.136719 L 15.023438 16.308594 C 15.1875 16.902344 15.648438 17.359375 16.238281 17.515625 L 16.40625 17.558594 L 16.238281 17.605469 C 15.652344 17.773438 15.199219 18.242188 15.046875 18.835938 L 15.003906 19.007812 L 14.953125 18.835938 C 14.789062 18.242188 14.328125 17.785156 13.742188 17.628906 L 13.570312 17.585938 L 13.738281 17.539062 C 14.324219 17.371094 14.777344 16.902344 14.929688 16.308594 " fill-opacity="1" fill-rule="nonzero"/><path fill="#42daf9" d="M 14.828125 22.039062 L 14.796875 21.902344 L 14.894531 22.003906 C 15.226562 22.351562 15.71875 22.488281 16.179688 22.371094 L 16.316406 22.335938 L 16.214844 22.433594 C 15.875 22.773438 15.734375 23.269531 15.851562 23.738281 L 15.886719 23.875 L 15.789062 23.773438 C 15.457031 23.425781 14.964844 23.289062 14.503906 23.40625 L 14.367188 23.441406 L 14.46875 23.339844 C 14.808594 23.003906 14.945312 22.507812 14.828125 22.039062 " fill-opacity="1" fill-rule="nonzero"/><path fill="#42daf9" d="M 30.832031 15.546875 L 30.855469 15.449219 L 30.882812 15.542969 C 30.96875 15.875 31.226562 16.128906 31.550781 16.21875 L 31.644531 16.242188 L 31.550781 16.269531 C 31.226562 16.359375 30.972656 16.617188 30.886719 16.945312 L 30.859375 17.042969 L 30.835938 16.945312 C 30.746094 16.617188 30.492188 16.359375 30.167969 16.273438 L 30.070312 16.246094 L 30.167969 16.222656 C 30.492188 16.132812 30.746094 15.875 30.832031 15.546875 " fill-opacity="1" fill-rule="nonzero"/></svg>