<svg xmlns="http://www.w3.org/2000/svg" xmlns:xlink="http://www.w3.org/1999/xlink" width="60" zoomAndPan="magnify" viewBox="0 0 45 44.999999" height="60" preserveAspectRatio="xMidYMid meet" version="1.0"><defs><clipPath id="4f2d2e9526"><path d="M 7.988281 7.988281 L 37.238281 7.988281 L 37.238281 37.238281 L 7.988281 37.238281 Z M 7.988281 7.988281 " clip-rule="nonzero"/></clipPath></defs><path fill="#ffde59" d="M 8.273438 8.074219 C 7.953125 8.351562 7.640625 8.636719 7.34375 8.929688 C 4.03125 12.195312 2.359375 16.457031 2.324219 20.855469 C 2.289062 25.25 3.890625 29.773438 7.125 33.566406 C 7.460938 33.960938 7.820312 34.351562 8.191406 34.730469 C 12.113281 38.707031 17.261719 40.945312 22.410156 41.347656 C 27.570312 41.753906 32.734375 40.316406 36.683594 36.949219 C 37.007812 36.671875 37.316406 36.386719 37.617188 36.09375 C 40.925781 32.828125 42.601562 28.566406 42.632812 24.164062 C 42.667969 19.773438 41.070312 15.25 37.832031 11.460938 C 37.496094 11.0625 37.136719 10.671875 36.765625 10.292969 C 32.84375 6.316406 27.695312 4.078125 22.546875 3.675781 C 17.386719 3.269531 12.226562 4.707031 8.273438 8.074219 Z M 7.742188 9.335938 C 8.03125 9.054688 8.332031 8.777344 8.644531 8.511719 C 12.476562 5.242188 17.488281 3.851562 22.5 4.246094 C 27.519531 4.640625 32.535156 6.820312 36.359375 10.695312 C 36.722656 11.066406 37.070312 11.445312 37.398438 11.832031 C 40.542969 15.515625 42.097656 19.90625 42.0625 24.160156 C 42.03125 28.414062 40.414062 32.53125 37.214844 35.683594 C 36.925781 35.96875 36.625 36.246094 36.3125 36.511719 C 32.484375 39.78125 27.46875 41.171875 22.457031 40.777344 C 17.4375 40.386719 12.421875 38.203125 8.601562 34.328125 C 8.238281 33.957031 7.886719 33.578125 7.558594 33.191406 C 4.414062 29.507812 2.859375 25.117188 2.894531 20.863281 C 2.929688 16.613281 4.546875 12.492188 7.742188 9.335938 " fill-opacity="1" fill-rule="nonzero"/><path fill="#004aad" d="M 16.328125 4.992188 C 6.652344 8.390625 1.5625 18.988281 4.960938 28.664062 C 8.359375 38.339844 18.957031 43.429688 28.632812 40.03125 C 38.308594 36.632812 43.398438 26.035156 40 16.359375 C 36.601562 6.683594 26 1.59375 16.328125 4.992188 " fill-opacity="1" fill-rule="evenodd"/><path fill="#004aad" d="M 15.3125 41.199219 C 11.355469 40.28125 9.410156 38.792969 6.429688 34.894531 C 3.445312 30.996094 2.875 36.785156 7.691406 39.304688 C 12.507812 41.828125 19.269531 42.117188 15.3125 41.199219 " fill-opacity="1" fill-rule="evenodd"/><path fill="#004aad" d="M 28.695312 3.390625 C 32.652344 4.308594 34.597656 5.796875 37.578125 9.695312 C 40.5625 13.59375 41.132812 7.808594 36.316406 5.285156 C 31.5 2.761719 24.738281 2.472656 28.695312 3.390625 " fill-opacity="1" fill-rule="evenodd"/><g clip-path="url(#4f2d2e9526)"><path fill="#97bed4" d="M 10.394531 22.496094 C 10.394531 19.726562 11.324219 17.175781 12.890625 15.136719 L 29.855469 32.101562 C 27.816406 33.667969 25.265625 34.597656 22.496094 34.597656 C 15.8125 34.597656 10.394531 29.179688 10.394531 22.496094 Z M 17.917969 21.335938 C 17.769531 21.484375 17.652344 21.640625 17.5625 21.800781 L 18.367188 22.117188 C 18.648438 22.226562 18.789062 22.550781 18.679688 22.832031 C 18.570312 23.113281 18.246094 23.257812 17.964844 23.144531 L 17.238281 22.859375 C 17.210938 23.160156 17.222656 23.453125 17.230469 23.722656 C 17.234375 23.8125 17.238281 23.902344 17.238281 23.988281 L 17.953125 24.121094 C 18.253906 24.175781 18.449219 24.464844 18.394531 24.765625 C 18.339844 25.066406 18.050781 25.261719 17.75 25.207031 L 17.089844 25.082031 C 16.929688 25.4375 16.636719 25.714844 16.285156 25.871094 C 16.039062 25.984375 15.753906 26.035156 15.46875 26.007812 C 15.183594 25.984375 14.894531 25.878906 14.640625 25.6875 C 14.300781 25.433594 14.023438 25.023438 13.871094 24.425781 L 13.078125 24.433594 C 12.773438 24.4375 12.527344 24.191406 12.523438 23.886719 C 12.519531 23.582031 12.765625 23.335938 13.070312 23.332031 L 13.753906 23.324219 C 13.75 23.011719 13.765625 22.6875 13.800781 22.367188 L 12.925781 22.105469 C 12.632812 22.015625 12.464844 21.707031 12.554688 21.417969 C 12.640625 21.125 12.949219 20.957031 13.242188 21.046875 L 14.007812 21.277344 C 14.066406 21.054688 14.132812 20.835938 14.210938 20.621094 C 14.257812 20.5 14.304688 20.378906 14.355469 20.261719 L 13.691406 19.964844 C 13.414062 19.84375 13.289062 19.515625 13.410156 19.238281 C 13.535156 18.957031 13.859375 18.832031 14.140625 18.957031 L 14.882812 19.285156 C 15.011719 19.089844 15.152344 18.902344 15.304688 18.722656 L 16.089844 19.507812 C 15.75 19.917969 15.433594 20.5 15.25 21 C 14.917969 21.898438 14.796875 22.886719 14.882812 23.785156 C 14.917969 24.171875 15.074219 24.867188 15.570312 24.914062 C 15.792969 24.933594 16.046875 24.800781 16.105469 24.570312 C 16.164062 24.332031 16.136719 23.988281 16.128906 23.761719 C 16.09375 22.800781 16.046875 21.621094 17.132812 20.550781 C 17.390625 20.808594 17.652344 21.070312 17.917969 21.335938 Z M 27.550781 25.019531 C 27.84375 24.570312 28.390625 24.332031 28.9375 24.460938 C 29.636719 24.625 30.070312 25.324219 29.90625 26.019531 C 29.828125 26.363281 29.621094 26.640625 29.347656 26.816406 Z M 29.128906 20.28125 C 29.292969 19.582031 29.992188 19.148438 30.691406 19.3125 C 31.390625 19.472656 31.824219 20.175781 31.660156 20.875 C 31.496094 21.574219 30.796875 22.007812 30.097656 21.839844 C 29.398438 21.679688 28.964844 20.980469 29.128906 20.28125 Z M 24.949219 18.992188 L 24.695312 19.339844 C 24.515625 19.585938 24.171875 19.636719 23.921875 19.457031 C 23.675781 19.277344 23.625 18.933594 23.804688 18.6875 L 24.238281 18.09375 C 24.222656 18.039062 24.210938 17.980469 24.203125 17.921875 C 24.148438 17.519531 24.03125 17.207031 23.878906 16.957031 L 23.386719 17.410156 C 23.164062 17.617188 22.816406 17.605469 22.609375 17.382812 C 22.402344 17.160156 22.414062 16.8125 22.636719 16.601562 L 23.066406 16.207031 C 22.867188 16.09375 22.667969 16.007812 22.480469 15.925781 C 22.425781 15.902344 22.371094 15.878906 22.316406 15.855469 L 21.976562 16.320312 C 21.796875 16.566406 21.453125 16.621094 21.207031 16.441406 C 20.960938 16.257812 20.90625 15.914062 21.089844 15.667969 L 21.402344 15.242188 C 21.195312 14.972656 21.09375 14.640625 21.101562 14.308594 C 21.109375 14.058594 21.179688 13.800781 21.3125 13.578125 C 21.449219 13.351562 21.644531 13.15625 21.910156 13.019531 C 22.234375 12.847656 22.660156 12.777344 23.179688 12.875 L 23.445312 12.300781 C 23.578125 12.023438 23.902344 11.90625 24.179688 12.035156 C 24.457031 12.164062 24.574219 12.492188 24.445312 12.765625 L 24.226562 13.238281 C 24.441406 13.339844 24.652344 13.453125 24.855469 13.578125 L 25.351562 13.039062 C 25.554688 12.8125 25.90625 12.796875 26.128906 13 C 26.355469 13.207031 26.371094 13.554688 26.164062 13.78125 L 25.753906 14.238281 C 25.824219 14.300781 25.898438 14.367188 25.96875 14.4375 C 26.089844 14.554688 26.207031 14.679688 26.320312 14.808594 L 26.746094 14.441406 C 26.976562 14.242188 27.324219 14.269531 27.523438 14.5 C 27.722656 14.730469 27.695312 15.082031 27.460938 15.277344 L 26.960938 15.710938 C 27.121094 15.992188 27.261719 16.292969 27.378906 16.613281 C 27.402344 16.667969 27.417969 16.726562 27.433594 16.78125 L 28.027344 16.65625 C 28.324219 16.59375 28.617188 16.789062 28.679688 17.085938 C 28.738281 17.386719 28.546875 17.675781 28.25 17.738281 L 27.519531 17.890625 C 27.453125 18.222656 27.296875 18.496094 27.085938 18.707031 C 26.863281 18.929688 26.582031 19.078125 26.289062 19.152344 C 26.003906 19.222656 25.703125 19.226562 25.421875 19.164062 C 25.253906 19.128906 25.09375 19.070312 24.949219 18.992188 Z M 23.320312 14.058594 C 22.890625 13.902344 22.59375 13.910156 22.414062 14 C 22.34375 14.039062 22.292969 14.085938 22.257812 14.144531 C 21.996094 14.582031 22.625 14.789062 22.914062 14.914062 C 23.847656 15.316406 25.03125 15.832031 25.296875 17.773438 C 25.320312 17.9375 25.472656 18.046875 25.65625 18.085938 C 25.773438 18.113281 25.902344 18.109375 26.023438 18.082031 C 26.132812 18.054688 26.230469 18.003906 26.300781 17.933594 C 26.457031 17.773438 26.515625 17.472656 26.339844 16.988281 C 25.832031 15.597656 24.710938 14.574219 23.320312 14.058594 Z M 22.132812 30.183594 C 22.285156 29.535156 22.933594 29.132812 23.585938 29.285156 C 24.238281 29.4375 24.640625 30.085938 24.488281 30.738281 C 24.335938 31.386719 23.683594 31.792969 23.03125 31.640625 C 22.382812 31.488281 21.980469 30.835938 22.132812 30.183594 Z M 16.378906 28.210938 C 16.566406 27.421875 17.355469 26.929688 18.148438 27.113281 C 18.941406 27.300781 19.433594 28.09375 19.246094 28.882812 C 19.058594 29.675781 18.269531 30.167969 17.476562 29.980469 C 16.683594 29.796875 16.191406 29.003906 16.378906 28.210938 Z M 14.648438 13.285156 C 16.761719 11.484375 19.5 10.394531 22.496094 10.394531 C 29.179688 10.394531 34.597656 15.8125 34.597656 22.496094 C 34.597656 25.488281 33.507812 28.230469 31.703125 30.34375 Z M 37.003906 22.496094 C 37.003906 14.484375 30.507812 7.988281 22.496094 7.988281 C 14.476562 7.988281 7.992188 14.480469 7.988281 22.496094 C 7.992188 30.515625 14.476562 36.996094 22.496094 37.003906 C 30.511719 36.996094 37.003906 30.511719 37.003906 22.496094 Z M 37.003906 22.496094 " fill-opacity="1" fill-rule="evenodd"/></g></svg>