<svg xmlns="http://www.w3.org/2000/svg" xmlns:xlink="http://www.w3.org/1999/xlink" width="60" zoomAndPan="magnify" viewBox="0 0 45 44.999999" height="60" preserveAspectRatio="xMidYMid meet" version="1.0"><defs><clipPath id="462e80e268"><path d="M 10.378906 12 L 12 12 L 12 14 L 10.378906 14 Z M 10.378906 12 " clip-rule="nonzero"/></clipPath><clipPath id="b719379d50"><path d="M 11 10.886719 L 19 10.886719 L 19 12 L 11 12 Z M 11 10.886719 " clip-rule="nonzero"/></clipPath><clipPath id="29a3458e0c"><path d="M 10.378906 16 L 34.378906 16 L 34.378906 34.136719 L 10.378906 34.136719 Z M 10.378906 16 " clip-rule="nonzero"/></clipPath></defs><path fill="#ffde59" d="M 8.273438 8.074219 C 7.953125 8.351562 7.640625 8.636719 7.34375 8.929688 C 4.03125 12.195312 2.359375 16.457031 2.324219 20.855469 C 2.289062 25.25 3.890625 29.773438 7.125 33.566406 C 7.460938 33.960938 7.820312 34.351562 8.191406 34.730469 C 12.113281 38.707031 17.261719 40.945312 22.410156 41.347656 C 27.570312 41.753906 32.734375 40.316406 36.683594 36.949219 C 37.007812 36.671875 37.316406 36.386719 37.617188 36.09375 C 40.925781 32.828125 42.601562 28.566406 42.632812 24.164062 C 42.667969 19.773438 41.070312 15.25 37.832031 11.460938 C 37.496094 11.0625 37.136719 10.671875 36.765625 10.292969 C 32.84375 6.316406 27.695312 4.078125 22.546875 3.675781 C 17.386719 3.269531 12.226562 4.707031 8.273438 8.074219 Z M 7.742188 9.335938 C 8.03125 9.054688 8.332031 8.777344 8.644531 8.511719 C 12.476562 5.242188 17.488281 3.851562 22.5 4.246094 C 27.519531 4.640625 32.535156 6.820312 36.359375 10.695312 C 36.722656 11.066406 37.070312 11.445312 37.398438 11.832031 C 40.542969 15.515625 42.097656 19.90625 42.0625 24.160156 C 42.03125 28.414062 40.414062 32.53125 37.214844 35.683594 C 36.925781 35.96875 36.625 36.246094 36.3125 36.511719 C 32.484375 39.78125 27.46875 41.171875 22.457031 40.777344 C 17.4375 40.386719 12.421875 38.203125 8.601562 34.328125 C 8.238281 33.957031 7.886719 33.578125 7.558594 33.191406 C 4.414062 29.507812 2.859375 25.117188 2.894531 20.863281 C 2.929688 16.613281 4.546875 12.492188 7.742188 9.335938 " fill-opacity="1" fill-rule="nonzero"/><path fill="#004aad" d="M 16.328125 4.992188 C 6.652344 8.390625 1.5625 18.988281 4.960938 28.664062 C 8.359375 38.339844 18.957031 43.429688 28.632812 40.03125 C 38.308594 36.632812 43.398438 26.035156 40 16.359375 C 36.601562 6.683594 26 1.59375 16.328125 4.992188 " fill-opacity="1" fill-rule="evenodd"/><path fill="#004aad" d="M 15.3125 41.199219 C 11.355469 40.28125 9.410156 38.792969 6.429688 34.894531 C 3.445312 30.996094 2.875 36.785156 7.691406 39.304688 C 12.507812 41.828125 19.269531 42.117188 15.3125 41.199219 " fill-opacity="1" fill-rule="evenodd"/><path fill="#004aad" d="M 28.695312 3.390625 C 32.652344 4.308594 34.597656 5.796875 37.578125 9.695312 C 40.5625 13.59375 41.132812 7.808594 36.316406 5.285156 C 31.5 2.761719 24.738281 2.472656 28.695312 3.390625 " fill-opacity="1" fill-rule="evenodd"/><g clip-path="url(#462e80e268)"><path fill="#97bed4" d="M 10.882812 13.917969 L 11.390625 13.917969 C 11.667969 13.917969 11.894531 13.691406 11.894531 13.410156 C 11.894531 13.132812 11.667969 12.90625 11.390625 12.90625 L 10.882812 12.90625 C 10.605469 12.90625 10.378906 13.132812 10.378906 13.410156 C 10.378906 13.691406 10.605469 13.917969 10.882812 13.917969 Z M 10.882812 13.917969 " fill-opacity="1" fill-rule="nonzero"/></g><path fill="#97bed4" d="M 16.4375 13.917969 C 16.71875 13.917969 16.941406 13.691406 16.941406 13.410156 C 16.941406 13.132812 16.71875 12.90625 16.4375 12.90625 L 13.410156 12.90625 C 13.128906 12.90625 12.902344 13.132812 12.902344 13.410156 C 12.902344 13.691406 13.128906 13.917969 13.410156 13.917969 Z M 16.4375 13.917969 " fill-opacity="1" fill-rule="nonzero"/><g clip-path="url(#b719379d50)"><path fill="#97bed4" d="M 11.894531 11.898438 L 17.953125 11.898438 C 18.230469 11.898438 18.457031 11.671875 18.457031 11.390625 C 18.457031 11.113281 18.230469 10.886719 17.953125 10.886719 L 11.894531 10.886719 C 11.617188 10.886719 11.390625 11.113281 11.390625 11.390625 C 11.390625 11.671875 11.617188 11.898438 11.894531 11.898438 Z M 11.894531 11.898438 " fill-opacity="1" fill-rule="nonzero"/></g><path fill="#97bed4" d="M 11.390625 15.429688 C 11.390625 15.710938 11.617188 15.9375 11.894531 15.9375 L 18.960938 15.9375 C 19.242188 15.9375 19.46875 15.710938 19.46875 15.429688 C 19.46875 15.152344 19.242188 14.925781 18.960938 14.925781 L 11.894531 14.925781 C 11.617188 14.925781 11.390625 15.152344 11.390625 15.429688 Z M 11.390625 15.429688 " fill-opacity="1" fill-rule="nonzero"/><g clip-path="url(#29a3458e0c)"><path fill="#97bed4" d="M 32.507812 25.035156 L 31.90625 22.011719 C 31.667969 20.816406 30.609375 19.949219 29.390625 19.949219 L 26.535156 19.949219 L 26.535156 17.449219 C 26.535156 17.171875 26.308594 16.945312 26.03125 16.945312 L 10.882812 16.945312 C 10.605469 16.945312 10.378906 17.171875 10.378906 17.449219 C 10.378906 18.117188 10.378906 31.011719 10.378906 31.585938 C 10.378906 31.867188 10.605469 32.09375 10.882812 32.09375 L 12.953125 32.09375 C 13.191406 33.242188 14.210938 34.113281 15.429688 34.113281 C 16.648438 34.113281 17.667969 33.242188 17.902344 32.09375 L 27.089844 32.09375 C 27.328125 33.242188 28.347656 34.113281 29.566406 34.113281 C 30.785156 34.113281 31.804688 33.242188 32.039062 32.09375 L 34.109375 32.09375 C 34.386719 32.09375 34.613281 31.867188 34.613281 31.585938 C 34.613281 30.539062 34.613281 27.988281 34.613281 27.347656 C 34.613281 26.136719 33.6875 25.140625 32.507812 25.035156 Z M 28.554688 20.960938 L 29.390625 20.960938 C 30.128906 20.960938 30.769531 21.484375 30.914062 22.210938 L 31.472656 25.023438 L 28.554688 25.023438 Z M 11.390625 17.957031 L 25.527344 17.957031 C 25.527344 18.917969 25.527344 25.042969 25.527344 26.035156 L 21.125 26.035156 C 21.964844 25.292969 22.496094 24.210938 22.496094 23.003906 C 22.496094 20.777344 20.683594 18.964844 18.457031 18.964844 C 16.230469 18.964844 14.417969 20.777344 14.417969 23.003906 C 14.417969 24.210938 14.949219 25.292969 15.789062 26.035156 L 11.390625 26.035156 Z M 18.960938 21.488281 L 18.960938 23.003906 C 18.960938 23.285156 18.738281 23.507812 18.457031 23.507812 L 16.941406 23.507812 C 16.664062 23.507812 16.4375 23.285156 16.4375 23.003906 C 16.4375 22.726562 16.664062 22.5 16.941406 22.5 L 17.953125 22.5 L 17.953125 21.488281 C 17.953125 21.210938 18.179688 20.984375 18.457031 20.984375 C 18.738281 20.984375 18.960938 21.210938 18.960938 21.488281 Z M 12.953125 31.082031 L 11.390625 31.082031 L 11.390625 30.074219 L 13.410156 30.074219 C 13.1875 30.367188 13.03125 30.710938 12.953125 31.082031 Z M 15.785156 31.945312 C 15.691406 32.039062 15.265625 32.140625 15.070312 31.945312 C 14.875 31.75 14.875 31.429688 15.070312 31.230469 C 15.269531 31.035156 15.585938 31.03125 15.785156 31.230469 C 15.980469 31.425781 15.984375 31.746094 15.785156 31.945312 Z M 11.390625 29.0625 L 11.390625 27.042969 L 25.527344 27.042969 L 25.527344 29.0625 Z M 27.089844 31.082031 L 17.902344 31.082031 C 17.824219 30.710938 17.667969 30.367188 17.445312 30.074219 C 17.988281 30.074219 27.09375 30.074219 27.546875 30.074219 C 27.324219 30.367188 27.167969 30.710938 27.089844 31.082031 Z M 29.921875 31.945312 C 29.828125 32.039062 29.402344 32.140625 29.207031 31.945312 C 29.011719 31.75 29.011719 31.429688 29.207031 31.230469 C 29.40625 31.035156 29.722656 31.03125 29.921875 31.230469 C 30.117188 31.425781 30.121094 31.746094 29.921875 31.945312 Z M 33.605469 31.082031 L 32.039062 31.082031 C 31.960938 30.710938 31.804688 30.367188 31.582031 30.074219 L 33.605469 30.074219 Z M 33.605469 29.0625 L 26.535156 29.0625 C 26.535156 28.085938 26.535156 21.945312 26.535156 20.960938 L 27.546875 20.960938 L 27.546875 25.527344 C 27.546875 25.808594 27.773438 26.035156 28.050781 26.035156 C 28.460938 26.035156 31.65625 26.035156 32.292969 26.035156 C 33.015625 26.035156 33.605469 26.621094 33.605469 27.347656 Z M 33.605469 29.0625 " fill-opacity="1" fill-rule="nonzero"/></g></svg>