<svg xmlns="http://www.w3.org/2000/svg" xmlns:xlink="http://www.w3.org/1999/xlink" width="60" zoomAndPan="magnify" viewBox="0 0 45 44.999999" height="60" preserveAspectRatio="xMidYMid meet" version="1.0"><defs><clipPath id="46631a9526"><path d="M 18 7.539062 L 23 7.539062 L 23 13 L 18 13 Z M 18 7.539062 " clip-rule="nonzero"/></clipPath><clipPath id="e97435e543"><path d="M 8.15625 12 L 32 12 L 32 37.539062 L 8.15625 37.539062 Z M 8.15625 12 " clip-rule="nonzero"/></clipPath><clipPath id="f620315c9e"><path d="M 8.15625 12 L 29 12 L 29 37.539062 L 8.15625 37.539062 Z M 8.15625 12 " clip-rule="nonzero"/></clipPath><clipPath id="9861d10150"><path d="M 24 16 L 36.65625 16 L 36.65625 29 L 24 29 Z M 24 16 " clip-rule="nonzero"/></clipPath><clipPath id="baa4d7e2b8"><path d="M 23 16 L 36.65625 16 L 36.65625 30 L 23 30 Z M 23 16 " clip-rule="nonzero"/></clipPath><clipPath id="6623157003"><path d="M 24 19 L 36.65625 19 L 36.65625 29 L 24 29 Z M 24 19 " clip-rule="nonzero"/></clipPath><clipPath id="a49cca5649"><path d="M 23 18 L 36.65625 18 L 36.65625 30 L 23 30 Z M 23 18 " clip-rule="nonzero"/></clipPath><clipPath id="6a4c6ef06d"><path d="M 34 22 L 36.65625 22 L 36.65625 24 L 34 24 Z M 34 22 " clip-rule="nonzero"/></clipPath></defs><path fill="#ffde59" d="M 8.273438 8.074219 C 7.953125 8.351562 7.640625 8.636719 7.34375 8.929688 C 4.03125 12.195312 2.359375 16.457031 2.324219 20.855469 C 2.289062 25.25 3.890625 29.773438 7.125 33.566406 C 7.460938 33.960938 7.820312 34.351562 8.191406 34.730469 C 12.113281 38.707031 17.261719 40.945312 22.410156 41.347656 C 27.570312 41.753906 32.734375 40.316406 36.683594 36.949219 C 37.007812 36.671875 37.316406 36.386719 37.617188 36.09375 C 40.925781 32.828125 42.601562 28.566406 42.632812 24.164062 C 42.667969 19.773438 41.070312 15.25 37.832031 11.460938 C 37.496094 11.0625 37.136719 10.671875 36.765625 10.292969 C 32.84375 6.316406 27.695312 4.078125 22.546875 3.675781 C 17.386719 3.269531 12.226562 4.707031 8.273438 8.074219 Z M 7.742188 9.335938 C 8.03125 9.054688 8.332031 8.777344 8.644531 8.511719 C 12.476562 5.242188 17.488281 3.851562 22.5 4.246094 C 27.519531 4.640625 32.535156 6.820312 36.359375 10.695312 C 36.722656 11.066406 37.070312 11.445312 37.398438 11.832031 C 40.542969 15.515625 42.097656 19.90625 42.0625 24.160156 C 42.03125 28.414062 40.414062 32.53125 37.214844 35.683594 C 36.925781 35.96875 36.625 36.246094 36.3125 36.511719 C 32.484375 39.78125 27.46875 41.171875 22.457031 40.777344 C 17.4375 40.386719 12.421875 38.203125 8.601562 34.328125 C 8.238281 33.957031 7.886719 33.578125 7.558594 33.191406 C 4.414062 29.507812 2.859375 25.117188 2.894531 20.863281 C 2.929688 16.613281 4.546875 12.492188 7.742188 9.335938 " fill-opacity="1" fill-rule="nonzero"/><path fill="#004aad" d="M 16.328125 4.992188 C 6.652344 8.390625 1.5625 18.988281 4.960938 28.664062 C 8.359375 38.339844 18.957031 43.429688 28.632812 40.03125 C 38.308594 36.632812 43.398438 26.035156 40 16.359375 C 36.601562 6.683594 26 1.59375 16.328125 4.992188 " fill-opacity="1" fill-rule="evenodd"/><path fill="#004aad" d="M 15.3125 41.199219 C 11.355469 40.28125 9.410156 38.792969 6.429688 34.894531 C 3.445312 30.996094 2.875 36.785156 7.691406 39.304688 C 12.507812 41.828125 19.269531 42.117188 15.3125 41.199219 " fill-opacity="1" fill-rule="evenodd"/><path fill="#004aad" d="M 28.695312 3.390625 C 32.652344 4.308594 34.597656 5.796875 37.578125 9.695312 C 40.5625 13.59375 41.132812 7.808594 36.316406 5.285156 C 31.5 2.761719 24.738281 2.472656 28.695312 3.390625 " fill-opacity="1" fill-rule="evenodd"/><path fill="#fbeb9d" d="M 20.351562 15.039062 C 22.726562 15.039062 23.597656 12.734375 23.597656 12.734375 C 23.597656 12.734375 21.839844 11.800781 20.351562 11.800781 C 18.863281 11.800781 17.109375 12.734375 17.109375 12.734375 C 17.109375 12.734375 17.980469 15.039062 20.351562 15.039062 Z M 20.351562 15.039062 " fill-opacity="1" fill-rule="nonzero"/><path fill="#000000" d="M 20.351562 15.507812 C 17.6875 15.507812 16.714844 13.007812 16.675781 12.898438 L 16.527344 12.511719 L 16.886719 12.316406 C 16.960938 12.277344 18.761719 11.324219 20.347656 11.324219 C 21.9375 11.324219 23.734375 12.277344 23.8125 12.316406 L 24.171875 12.511719 L 24.027344 12.898438 C 23.992188 13.007812 23.015625 15.507812 20.351562 15.507812 Z M 17.734375 12.953125 C 18.070312 13.539062 18.878906 14.574219 20.359375 14.574219 C 21.835938 14.574219 22.644531 13.539062 22.980469 12.953125 C 22.402344 12.691406 21.308594 12.269531 20.359375 12.269531 C 19.40625 12.261719 18.308594 12.691406 17.734375 12.953125 Z M 17.734375 12.953125 " fill-opacity="1" fill-rule="nonzero"/><g clip-path="url(#46631a9526)"><path fill="#000000" d="M 20.816406 12.261719 L 19.894531 12.261719 L 19.894531 11.15625 C 19.894531 10.632812 20.1875 10.175781 20.644531 9.984375 C 20.972656 9.847656 21.164062 9.5 21.097656 9.140625 C 21.042969 8.839844 20.792969 8.585938 20.496094 8.535156 C 20.265625 8.492188 20.046875 8.550781 19.871094 8.699219 C 19.699219 8.84375 19.601562 9.054688 19.601562 9.28125 L 19.601562 9.75 L 18.671875 9.75 L 18.671875 9.28125 C 18.671875 8.777344 18.890625 8.304688 19.273438 7.980469 C 19.65625 7.65625 20.15625 7.523438 20.652344 7.613281 C 21.332031 7.734375 21.886719 8.292969 22.007812 8.976562 C 22.144531 9.773438 21.726562 10.542969 20.996094 10.847656 C 20.886719 10.894531 20.816406 11.015625 20.816406 11.15625 Z M 20.816406 12.261719 " fill-opacity="1" fill-rule="nonzero"/></g><g clip-path="url(#e97435e543)"><path fill="#cff5ff" d="M 12.9375 18.71875 L 12.9375 24.074219 C 11.214844 23.570312 9.820312 22.570312 8.765625 21.066406 L 11.542969 15.050781 L 17.105469 12.734375 C 17.105469 12.734375 18.496094 14.128906 20.347656 14.128906 C 22.203125 14.128906 23.59375 12.734375 23.59375 12.734375 L 28.691406 15.050781 L 31.941406 21.066406 C 31.027344 22.554688 29.570312 23.488281 27.769531 24.078125 L 27.769531 18.71875 L 27.769531 35.65625 C 27.769531 35.65625 24.988281 37.058594 20.351562 37.058594 C 15.71875 37.058594 12.9375 35.65625 12.9375 35.65625 Z M 12.9375 18.71875 " fill-opacity="1" fill-rule="nonzero"/></g><g clip-path="url(#f620315c9e)"><path fill="#000000" d="M 20.351562 37.527344 C 15.664062 37.527344 12.847656 36.136719 12.730469 36.078125 L 12.476562 35.949219 L 12.476562 24.417969 C 10.804688 23.855469 9.429688 22.820312 8.390625 21.335938 L 8.234375 21.113281 L 11.207031 14.691406 L 17.222656 12.183594 L 17.4375 12.40625 C 17.449219 12.417969 18.726562 13.667969 20.359375 13.667969 C 21.988281 13.667969 23.265625 12.417969 23.277344 12.40625 L 23.503906 12.179688 L 28.679688 14.535156 L 28.296875 15.386719 L 23.6875 13.292969 C 23.183594 13.71875 21.933594 14.609375 20.359375 14.609375 C 18.777344 14.609375 17.523438 13.707031 17.023438 13.285156 L 11.898438 15.421875 L 9.308594 21.019531 C 10.144531 22.136719 11.210938 22.945312 12.480469 23.429688 L 12.480469 18.25 L 13.40625 18.25 L 13.40625 35.351562 C 14.183594 35.679688 16.683594 36.589844 20.359375 36.589844 C 24.050781 36.589844 26.535156 35.679688 27.308594 35.351562 L 27.308594 30.460938 L 28.238281 30.460938 L 28.238281 35.949219 L 27.984375 36.078125 C 27.859375 36.136719 25.042969 37.527344 20.351562 37.527344 Z M 20.351562 37.527344 " fill-opacity="1" fill-rule="nonzero"/></g><path fill="#7f7f7f" d="M 24.300781 22.761719 C 23.535156 21.890625 22.195312 21.488281 21.015625 21.769531 C 20.769531 21.832031 20.507812 21.917969 20.261719 21.867188 C 19.566406 21.714844 19.375 20.601562 18.667969 20.691406 C 18.265625 20.746094 18.085938 21.175781 18.015625 21.546875 C 17.949219 21.914062 17.875 22.347656 17.511719 22.519531 C 17.199219 22.675781 16.820312 22.554688 16.472656 22.546875 C 15.777344 22.527344 15.132812 23.003906 14.898438 23.605469 C 14.667969 24.207031 14.820312 24.898438 15.210938 25.425781 C 15.605469 25.960938 16.230469 26.367188 16.417969 26.988281 C 16.539062 27.386719 16.457031 27.8125 16.40625 28.222656 C 16.351562 28.632812 16.339844 29.078125 16.574219 29.429688 C 16.683594 29.589844 16.867188 29.71875 17.066406 29.78125 C 17.292969 30.050781 17.402344 30.421875 17.449219 30.769531 C 17.511719 31.242188 17.503906 31.738281 17.714844 32.171875 C 17.921875 32.609375 18.449219 32.972656 18.941406 32.824219 C 19.542969 32.644531 19.6875 31.882812 20.226562 31.582031 C 20.699219 31.320312 21.34375 31.484375 21.820312 31.230469 C 22.222656 31.019531 22.402344 30.5625 22.445312 30.140625 C 22.492188 29.710938 22.441406 29.28125 22.535156 28.859375 C 22.800781 27.703125 24.070312 26.980469 24.652344 25.925781 C 25.207031 24.921875 25.066406 23.632812 24.300781 22.761719 Z M 24.300781 22.761719 " fill-opacity="1" fill-rule="nonzero"/><path fill="#000000" d="M 18.707031 33.316406 C 18.101562 33.316406 17.539062 32.882812 17.292969 32.367188 C 17.101562 31.964844 17.058594 31.542969 17.027344 31.164062 C 17.015625 31.046875 17.007812 30.9375 16.992188 30.824219 C 16.953125 30.550781 16.878906 30.324219 16.777344 30.160156 C 16.539062 30.050781 16.328125 29.882812 16.191406 29.679688 C 15.867188 29.1875 15.894531 28.605469 15.949219 28.152344 L 15.972656 27.992188 C 16.015625 27.671875 16.058594 27.367188 15.980469 27.117188 C 15.894531 26.828125 15.632812 26.5625 15.359375 26.285156 C 15.183594 26.101562 14.996094 25.914062 14.839844 25.699219 C 14.335938 25.015625 14.195312 24.148438 14.46875 23.429688 C 14.777344 22.625 15.621094 22.066406 16.484375 22.074219 C 16.601562 22.078125 16.71875 22.089844 16.839844 22.101562 C 17.03125 22.121094 17.210938 22.144531 17.316406 22.09375 C 17.453125 22.023438 17.511719 21.734375 17.558594 21.472656 C 17.695312 20.742188 18.074219 20.292969 18.609375 20.222656 C 19.25 20.140625 19.617188 20.613281 19.882812 20.957031 C 20.050781 21.167969 20.203125 21.367188 20.363281 21.402344 C 20.464844 21.421875 20.621094 21.382812 20.785156 21.339844 L 20.910156 21.304688 C 22.261719 20.976562 23.765625 21.433594 24.644531 22.441406 C 25.53125 23.453125 25.707031 24.976562 25.058594 26.140625 C 24.789062 26.625 24.40625 27.03125 24.03125 27.421875 C 23.558594 27.917969 23.113281 28.390625 22.988281 28.945312 C 22.941406 29.148438 22.9375 29.371094 22.933594 29.613281 C 22.929688 29.800781 22.925781 29.984375 22.910156 30.167969 C 22.835938 30.847656 22.527344 31.363281 22.039062 31.625 C 21.71875 31.792969 21.378906 31.824219 21.074219 31.847656 C 20.832031 31.871094 20.605469 31.890625 20.453125 31.972656 C 20.300781 32.054688 20.171875 32.238281 20.035156 32.433594 C 19.824219 32.738281 19.558594 33.109375 19.078125 33.253906 C 18.953125 33.300781 18.828125 33.316406 18.707031 33.316406 Z M 16.441406 23.011719 C 15.972656 23.011719 15.5 23.335938 15.328125 23.769531 C 15.167969 24.1875 15.265625 24.714844 15.582031 25.144531 C 15.699219 25.304688 15.855469 25.460938 16.015625 25.632812 C 16.339844 25.964844 16.707031 26.339844 16.859375 26.847656 C 16.996094 27.296875 16.933594 27.738281 16.882812 28.125 L 16.863281 28.277344 C 16.820312 28.582031 16.804688 28.933594 16.957031 29.160156 C 17.003906 29.230469 17.097656 29.292969 17.203125 29.324219 L 17.328125 29.367188 L 17.414062 29.46875 C 17.671875 29.769531 17.835938 30.183594 17.90625 30.695312 C 17.921875 30.820312 17.9375 30.949219 17.949219 31.074219 C 17.976562 31.394531 18.007812 31.707031 18.128906 31.957031 C 18.25 32.210938 18.570312 32.4375 18.8125 32.363281 C 18.980469 32.3125 19.097656 32.152344 19.28125 31.894531 C 19.460938 31.636719 19.667969 31.347656 20.003906 31.160156 C 20.328125 30.976562 20.683594 30.949219 20.996094 30.921875 C 21.234375 30.902344 21.453125 30.882812 21.609375 30.804688 C 21.898438 30.648438 21.972656 30.242188 21.988281 30.074219 C 22.007812 29.914062 22.011719 29.761719 22.011719 29.605469 C 22.015625 29.324219 22.019531 29.039062 22.089844 28.746094 C 22.269531 27.941406 22.828125 27.351562 23.367188 26.78125 C 23.710938 26.417969 24.039062 26.074219 24.253906 25.6875 C 24.710938 24.867188 24.585938 23.789062 23.953125 23.070312 C 23.300781 22.324219 22.136719 21.976562 21.125 22.222656 L 21.015625 22.25 C 20.777344 22.3125 20.484375 22.386719 20.167969 22.320312 C 19.683594 22.21875 19.390625 21.839844 19.15625 21.539062 C 18.9375 21.253906 18.828125 21.140625 18.730469 21.152344 C 18.625 21.164062 18.523438 21.359375 18.472656 21.628906 C 18.398438 22.050781 18.285156 22.660156 17.71875 22.941406 C 17.378906 23.105469 17.023438 23.066406 16.738281 23.035156 C 16.648438 23.023438 16.558594 23.015625 16.46875 23.011719 C 16.457031 23.011719 16.449219 23.011719 16.441406 23.011719 Z M 16.441406 23.011719 " fill-opacity="1" fill-rule="nonzero"/><path fill="#7f7f7f" d="M 16.644531 19.515625 C 16.644531 20.164062 16.230469 20.6875 15.714844 20.6875 C 15.203125 20.6875 14.792969 20.164062 14.792969 19.515625 C 14.792969 18.871094 15.207031 18.347656 15.714844 18.347656 C 16.230469 18.347656 16.644531 18.871094 16.644531 19.515625 Z M 16.644531 19.515625 " fill-opacity="1" fill-rule="nonzero"/><path fill="#000000" d="M 15.71875 21.15625 C 14.953125 21.15625 14.332031 20.421875 14.332031 19.515625 C 14.332031 18.613281 14.957031 17.878906 15.71875 17.878906 C 16.488281 17.878906 17.109375 18.613281 17.109375 19.515625 C 17.109375 20.421875 16.484375 21.15625 15.71875 21.15625 Z M 15.71875 18.816406 C 15.472656 18.816406 15.253906 19.144531 15.253906 19.515625 C 15.253906 19.890625 15.472656 20.21875 15.71875 20.21875 C 15.96875 20.21875 16.183594 19.890625 16.183594 19.515625 C 16.179688 19.144531 15.96875 18.816406 15.71875 18.816406 Z M 15.71875 18.816406 " fill-opacity="1" fill-rule="nonzero"/><path fill="#7f7f7f" d="M 25.617188 32.210938 C 26.015625 32.714844 25.851562 33.515625 25.25 34 C 24.648438 34.480469 23.839844 34.460938 23.441406 33.957031 C 23.042969 33.449219 23.207031 32.648438 23.804688 32.167969 C 24.40625 31.6875 25.214844 31.703125 25.617188 32.210938 Z M 25.617188 32.210938 " fill-opacity="1" fill-rule="nonzero"/><path fill="#000000" d="M 24.296875 34.820312 C 24.285156 34.820312 24.265625 34.820312 24.253906 34.820312 C 23.773438 34.808594 23.355469 34.609375 23.074219 34.25 C 22.519531 33.546875 22.71875 32.445312 23.519531 31.804688 C 23.894531 31.5 24.351562 31.347656 24.796875 31.351562 C 25.277344 31.363281 25.699219 31.5625 25.976562 31.917969 C 26.53125 32.625 26.335938 33.722656 25.53125 34.367188 C 25.171875 34.65625 24.730469 34.820312 24.296875 34.820312 Z M 24.757812 32.289062 C 24.53125 32.289062 24.296875 32.375 24.09375 32.539062 C 23.699219 32.851562 23.566406 33.371094 23.800781 33.671875 C 23.910156 33.804688 24.078125 33.882812 24.28125 33.886719 C 24.511719 33.890625 24.757812 33.804688 24.960938 33.636719 C 25.355469 33.320312 25.488281 32.804688 25.253906 32.503906 C 25.148438 32.371094 24.976562 32.292969 24.777344 32.289062 C 24.769531 32.289062 24.761719 32.289062 24.757812 32.289062 Z M 24.757812 32.289062 " fill-opacity="1" fill-rule="nonzero"/><path fill="#000000" d="M 23.402344 29.574219 L 24.0625 28.914062 L 24.71875 29.574219 L 24.0625 30.238281 C 23.402344 29.574219 24.0625 30.238281 23.402344 29.574219 Z M 23.402344 29.574219 " fill-opacity="1" fill-rule="nonzero"/><path fill="#000000" d="M 15.992188 34.253906 L 16.644531 33.59375 L 17.300781 34.253906 L 16.644531 34.914062 C 15.992188 34.253906 16.644531 34.914062 15.992188 34.253906 Z M 15.992188 34.253906 " fill-opacity="1" fill-rule="nonzero"/><path fill="#000000" d="M 17.84375 18.816406 L 18.5 18.152344 L 19.152344 18.816406 L 18.5 19.480469 C 17.84375 18.816406 18.5 19.480469 17.84375 18.816406 Z M 17.84375 18.816406 " fill-opacity="1" fill-rule="nonzero"/><path fill="#000000" d="M 20.164062 19.75 L 20.816406 19.085938 L 21.472656 19.75 L 20.816406 20.410156 C 20.164062 19.75 20.816406 20.410156 20.164062 19.75 Z M 20.164062 19.75 " fill-opacity="1" fill-rule="nonzero"/><path fill="#000000" d="M 20.160156 33.785156 L 20.816406 33.121094 L 21.472656 33.785156 L 20.816406 34.445312 C 20.160156 33.785156 20.816406 34.445312 20.160156 33.785156 Z M 20.160156 33.785156 " fill-opacity="1" fill-rule="nonzero"/><g clip-path="url(#9861d10150)"><path fill="#f8cf52" d="M 36.113281 22.558594 C 36.113281 22.957031 36.078125 23.351562 36 23.746094 C 35.921875 24.136719 35.808594 24.515625 35.65625 24.886719 C 35.503906 25.253906 35.320312 25.605469 35.097656 25.9375 C 34.878906 26.269531 34.628906 26.578125 34.351562 26.859375 C 34.070312 27.140625 33.765625 27.394531 33.4375 27.617188 C 33.105469 27.839844 32.761719 28.023438 32.394531 28.179688 C 32.027344 28.332031 31.652344 28.445312 31.265625 28.523438 C 30.875 28.601562 30.484375 28.640625 30.089844 28.640625 C 29.691406 28.640625 29.300781 28.601562 28.914062 28.523438 C 28.523438 28.445312 28.148438 28.332031 27.78125 28.179688 C 27.417969 28.023438 27.070312 27.839844 26.738281 27.617188 C 26.410156 27.394531 26.105469 27.140625 25.828125 26.859375 C 25.546875 26.578125 25.296875 26.269531 25.078125 25.9375 C 24.855469 25.605469 24.671875 25.253906 24.519531 24.886719 C 24.367188 24.515625 24.253906 24.136719 24.175781 23.746094 C 24.101562 23.351562 24.0625 22.957031 24.0625 22.558594 C 24.0625 22.160156 24.101562 21.761719 24.175781 21.371094 C 24.253906 20.980469 24.367188 20.597656 24.519531 20.230469 C 24.671875 19.863281 24.855469 19.511719 25.078125 19.179688 C 25.296875 18.847656 25.546875 18.539062 25.828125 18.257812 C 26.105469 17.972656 26.410156 17.722656 26.738281 17.5 C 27.070312 17.277344 27.417969 17.089844 27.78125 16.9375 C 28.148438 16.785156 28.523438 16.671875 28.914062 16.59375 C 29.300781 16.515625 29.691406 16.476562 30.089844 16.476562 C 30.484375 16.476562 30.875 16.515625 31.265625 16.59375 C 31.652344 16.671875 32.027344 16.785156 32.394531 16.9375 C 32.761719 17.089844 33.105469 17.277344 33.4375 17.5 C 33.765625 17.722656 34.070312 17.972656 34.351562 18.257812 C 34.628906 18.539062 34.878906 18.847656 35.097656 19.179688 C 35.320312 19.511719 35.503906 19.863281 35.65625 20.230469 C 35.808594 20.597656 35.921875 20.980469 36 21.371094 C 36.078125 21.761719 36.113281 22.160156 36.113281 22.558594 Z M 36.113281 22.558594 " fill-opacity="1" fill-rule="nonzero"/></g><g clip-path="url(#baa4d7e2b8)"><path fill="#000000" d="M 30.089844 29.105469 C 26.511719 29.105469 23.597656 26.167969 23.597656 22.554688 C 23.597656 18.945312 26.507812 16.007812 30.089844 16.007812 C 33.664062 16.007812 36.574219 18.945312 36.574219 22.554688 C 36.574219 26.167969 33.664062 29.105469 30.089844 29.105469 Z M 30.089844 16.945312 C 27.019531 16.945312 24.527344 19.460938 24.527344 22.558594 C 24.527344 25.652344 27.019531 28.171875 30.089844 28.171875 C 33.15625 28.171875 35.648438 25.652344 35.648438 22.558594 C 35.648438 19.460938 33.15625 16.945312 30.089844 16.945312 Z M 30.089844 16.945312 " fill-opacity="1" fill-rule="nonzero"/></g><g clip-path="url(#6623157003)"><path fill="#ffffff" d="M 32.792969 20.679688 C 32.640625 20.707031 32.480469 20.652344 32.40625 20.511719 C 31.988281 19.6875 31.109375 19.109375 30.1875 19.082031 C 29.179688 19.046875 28.242188 19.789062 27.824219 20.714844 C 27.191406 20.585938 26.496094 20.851562 26.113281 21.375 C 25.765625 21.847656 25.632812 22.5625 25.839844 23.117188 C 25.871094 23.195312 25.820312 23.28125 25.734375 23.28125 C 25.273438 23.296875 24.820312 23.515625 24.523438 23.875 C 24.429688 23.980469 24.363281 24.101562 24.300781 24.226562 C 25.019531 26.769531 27.335938 28.636719 30.089844 28.636719 C 33.414062 28.636719 36.113281 25.914062 36.113281 22.554688 C 36.113281 22.226562 36.082031 21.902344 36.03125 21.585938 C 35.742188 21.351562 35.414062 21.15625 35.070312 21.015625 C 34.335938 20.71875 33.554688 20.527344 32.792969 20.679688 Z M 32.792969 20.679688 " fill-opacity="1" fill-rule="nonzero"/></g><g clip-path="url(#a49cca5649)"><path fill="#000000" d="M 30.089844 29.105469 C 27.210938 29.105469 24.644531 27.152344 23.851562 24.359375 L 23.800781 24.1875 L 23.875 24.03125 C 23.953125 23.859375 24.054688 23.707031 24.164062 23.574219 C 24.453125 23.230469 24.859375 22.980469 25.300781 22.875 C 25.207031 22.273438 25.367188 21.601562 25.738281 21.097656 C 26.15625 20.523438 26.875 20.195312 27.558594 20.214844 C 28.136719 19.226562 29.191406 18.585938 30.203125 18.613281 C 31.253906 18.644531 32.253906 19.269531 32.773438 20.207031 C 33.503906 20.082031 34.308594 20.207031 35.242188 20.585938 C 35.621094 20.742188 35.984375 20.957031 36.320312 21.230469 L 36.460938 21.34375 L 36.488281 21.519531 C 36.550781 21.898438 36.578125 22.238281 36.578125 22.558594 C 36.574219 26.167969 33.664062 29.105469 30.089844 29.105469 Z M 24.796875 24.285156 C 25.53125 26.582031 27.683594 28.171875 30.089844 28.171875 C 33.15625 28.171875 35.648438 25.652344 35.648438 22.558594 C 35.648438 22.339844 35.632812 22.105469 35.601562 21.847656 C 35.375 21.6875 35.140625 21.554688 34.898438 21.453125 C 34.105469 21.128906 33.445312 21.027344 32.882812 21.140625 C 32.511719 21.210938 32.160156 21.046875 32 20.726562 C 31.65625 20.046875 30.921875 19.574219 30.179688 19.550781 C 29.414062 19.527344 28.625 20.085938 28.25 20.910156 L 28.097656 21.25 L 27.738281 21.175781 C 27.28125 21.082031 26.769531 21.28125 26.492188 21.65625 C 26.222656 22.023438 26.132812 22.570312 26.277344 22.957031 C 26.34375 23.136719 26.324219 23.335938 26.21875 23.492188 C 26.117188 23.648438 25.945312 23.746094 25.753906 23.753906 C 25.417969 23.765625 25.09375 23.925781 24.878906 24.179688 C 24.847656 24.210938 24.820312 24.242188 24.796875 24.285156 Z M 25.714844 22.816406 Z M 32.703125 20.21875 Z M 32.703125 20.21875 " fill-opacity="1" fill-rule="nonzero"/></g><path fill="#cff5ff" d="M 33.332031 24.195312 C 33.332031 25.101562 32.605469 25.835938 31.707031 25.835938 C 30.8125 25.835938 30.085938 25.101562 30.085938 24.195312 C 30.085938 23.292969 30.8125 22.558594 31.707031 22.558594 C 32.609375 22.558594 33.332031 23.292969 33.332031 24.195312 Z M 33.332031 24.195312 " fill-opacity="1" fill-rule="nonzero"/><path fill="#000000" d="M 31.710938 26.300781 C 30.5625 26.300781 29.628906 25.355469 29.628906 24.195312 C 29.628906 23.035156 30.566406 22.09375 31.710938 22.09375 C 32.863281 22.09375 33.796875 23.039062 33.796875 24.195312 C 33.796875 25.355469 32.859375 26.300781 31.710938 26.300781 Z M 31.710938 23.027344 C 31.074219 23.027344 30.550781 23.550781 30.550781 24.195312 C 30.550781 24.839844 31.070312 25.367188 31.710938 25.367188 C 32.351562 25.367188 32.871094 24.84375 32.871094 24.195312 C 32.867188 23.550781 32.347656 23.027344 31.710938 23.027344 Z M 31.710938 23.027344 " fill-opacity="1" fill-rule="nonzero"/><path fill="#cff5ff" d="M 31.015625 19.285156 C 31.015625 19.542969 30.925781 19.765625 30.746094 19.949219 C 30.5625 20.128906 30.34375 20.222656 30.089844 20.222656 C 29.832031 20.222656 29.613281 20.128906 29.429688 19.949219 C 29.25 19.765625 29.160156 19.542969 29.160156 19.285156 C 29.160156 19.027344 29.25 18.804688 29.429688 18.621094 C 29.613281 18.4375 29.832031 18.347656 30.089844 18.347656 C 30.34375 18.347656 30.5625 18.4375 30.746094 18.621094 C 30.925781 18.804688 31.015625 19.027344 31.015625 19.285156 Z M 31.015625 19.285156 " fill-opacity="1" fill-rule="nonzero"/><path fill="#000000" d="M 30.089844 20.6875 C 29.320312 20.6875 28.699219 20.054688 28.699219 19.285156 C 28.699219 18.507812 29.324219 17.882812 30.089844 17.882812 C 30.851562 17.882812 31.476562 18.511719 31.476562 19.285156 C 31.476562 20.054688 30.851562 20.6875 30.089844 20.6875 Z M 30.089844 18.816406 C 29.832031 18.816406 29.625 19.027344 29.625 19.285156 C 29.625 19.542969 29.832031 19.753906 30.089844 19.753906 C 30.34375 19.753906 30.550781 19.542969 30.550781 19.285156 C 30.550781 19.027344 30.34375 18.816406 30.089844 18.816406 Z M 30.089844 18.816406 " fill-opacity="1" fill-rule="nonzero"/><path fill="#cff5ff" d="M 31.015625 25.363281 C 31.015625 25.621094 30.925781 25.84375 30.746094 26.027344 C 30.5625 26.210938 30.34375 26.300781 30.089844 26.300781 C 29.832031 26.300781 29.613281 26.210938 29.429688 26.027344 C 29.25 25.84375 29.160156 25.621094 29.160156 25.363281 C 29.160156 25.105469 29.25 24.882812 29.429688 24.699219 C 29.613281 24.515625 29.832031 24.425781 30.089844 24.425781 C 30.34375 24.425781 30.5625 24.515625 30.746094 24.699219 C 30.925781 24.882812 31.015625 25.105469 31.015625 25.363281 Z M 31.015625 25.363281 " fill-opacity="1" fill-rule="nonzero"/><path fill="#000000" d="M 30.089844 26.769531 C 29.320312 26.769531 28.699219 26.140625 28.699219 25.367188 C 28.699219 24.59375 29.324219 23.964844 30.089844 23.964844 C 30.851562 23.964844 31.476562 24.59375 31.476562 25.367188 C 31.476562 26.140625 30.851562 26.769531 30.089844 26.769531 Z M 30.089844 24.898438 C 29.832031 24.898438 29.625 25.109375 29.625 25.367188 C 29.625 25.625 29.832031 25.835938 30.089844 25.835938 C 30.34375 25.835938 30.550781 25.625 30.550781 25.367188 C 30.550781 25.105469 30.34375 24.898438 30.089844 24.898438 Z M 30.089844 24.898438 " fill-opacity="1" fill-rule="nonzero"/><path fill="#000000" d="M 25.792969 27.027344 L 24.992188 26.558594 L 25.222656 26.152344 C 25.664062 25.375 26.5625 24.886719 27.449219 24.921875 L 27.914062 24.945312 L 27.867188 25.878906 L 27.402344 25.855469 C 26.851562 25.828125 26.296875 26.136719 26.027344 26.617188 Z M 25.792969 27.027344 " fill-opacity="1" fill-rule="nonzero"/><g clip-path="url(#6a4c6ef06d)"><path fill="#000000" d="M 35.925781 23.441406 L 35.542969 23.175781 C 35.386719 23.070312 35.1875 23.023438 35 23.058594 L 34.542969 23.144531 L 34.375 22.222656 L 34.832031 22.140625 C 35.257812 22.058594 35.707031 22.15625 36.066406 22.40625 L 36.449219 22.671875 Z M 35.925781 23.441406 " fill-opacity="1" fill-rule="nonzero"/></g><path fill="#000000" d="M 27.863281 22.339844 L 27.636719 21.933594 C 27.449219 21.589844 27.363281 21.207031 27.382812 20.820312 L 27.410156 20.351562 L 28.335938 20.40625 L 28.308594 20.875 C 28.296875 21.082031 28.34375 21.292969 28.445312 21.476562 L 28.667969 21.882812 Z M 27.863281 22.339844 " fill-opacity="1" fill-rule="nonzero"/></svg>